<svg width="62" height="73" viewBox="0 0 62 73" fill="none" xmlns="http://www.w3.org/2000/svg">
<path d="M44.1466 0C40.1327 0.271057 35.4411 2.77949 32.7071 6.04596C30.2131 9.00921 28.1614 13.4104 28.9613 17.6876C33.3471 17.8209 37.8787 15.2527 40.5044 11.9311C42.9608 8.83923 44.8196 4.46556 44.1466 0Z" fill="#828282"/>
<path d="M59.8996 25.0148C56.1841 20.3815 50.9625 17.6926 46.0312 17.6926C39.5212 17.6926 36.7674 20.792 32.2444 20.792C27.5808 20.792 24.0377 17.7016 18.4078 17.7016C12.8777 17.7016 6.9892 21.0627 3.25558 26.8104C-1.99327 34.9041 -1.09502 50.1215 7.4111 63.0832C10.4552 67.721 14.52 72.9364 19.8368 72.9815C24.5685 73.0266 25.9023 69.9633 32.3125 69.9317C38.7227 69.8956 39.9385 73.0221 44.6611 72.9725C49.9825 72.9319 54.2696 67.1526 57.3137 62.5147C59.4958 59.1897 60.3078 57.5159 62 53.7623C49.6922 49.1019 47.7188 31.6964 59.8996 25.0148Z" fill="#828282"/>
</svg>
