<svg width="92" height="55" viewBox="0 0 92 55" fill="none" xmlns="http://www.w3.org/2000/svg">
<path d="M79.93 20.2321V8.79381H74.1429V20.2321H62.5687V25.9513H74.1429V37.3895H79.93V25.9513H91.5042V20.2321H79.93Z" fill="#828282"/>
<path d="M28.0687 21.9918V32.9902H43.8107C41.5126 39.3913 35.3248 43.9886 28.0687 43.9886C18.865 43.9886 11.3751 36.5867 11.3751 27.491C11.3751 18.3954 18.865 10.9935 28.0687 10.9935C32.0584 10.9935 35.8979 12.4068 38.8805 14.9749L46.1923 6.68212C41.1842 2.37076 34.7516 -0.00488281 28.0687 -0.00488281C12.7273 -0.00488281 0.246094 12.3298 0.246094 27.491C0.246094 42.6523 12.7273 54.9869 28.0687 54.9869C43.41 54.9869 55.8913 42.6523 55.8913 27.491V21.9918H28.0687Z" fill="#828282"/>
</svg>
