<svg width="62" height="63" viewBox="0 0 62 63" fill="none" xmlns="http://www.w3.org/2000/svg">
<path d="M31.0382 0.547852C14.0425 0.547852 0.0949707 14.4954 0.0949707 31.4911C0.0949707 45.9943 10.2718 59.1689 23.7859 62.4344V52.1971C22.4469 52.4903 21.2146 52.4988 19.8514 52.097C18.0228 51.5573 16.5369 50.3391 15.4339 48.4817C14.7309 47.2956 13.4848 46.0095 12.185 46.1039L11.8663 42.4919C14.6771 42.2511 17.1087 44.2044 18.5521 46.6294C19.1933 47.7078 19.9312 48.34 20.8784 48.6195C21.7939 48.8891 22.7769 48.7598 23.9224 48.3551C24.2099 46.0619 25.2604 45.2035 26.0541 43.9948V43.9929C17.9944 42.7908 14.7823 38.5149 13.5075 35.1399C11.8181 30.6587 12.7247 25.0603 15.712 21.5225C15.7701 21.4535 15.8749 21.2732 15.8343 21.1471C14.4646 17.0096 16.1337 13.5869 16.1951 13.2238C17.7758 13.6913 18.0326 12.7536 23.0616 15.8089L23.9308 16.3311C24.2944 16.5478 24.1801 16.4241 24.5437 16.3967C26.6434 15.8264 28.8569 15.5114 31.0378 15.4831C33.2352 15.5114 35.4345 15.8264 37.621 16.4199L37.9025 16.4482C37.8779 16.4444 37.9789 16.4303 38.1484 16.3292C44.4305 12.5241 44.2048 13.7678 45.8895 13.2201C45.9504 13.5836 47.5972 17.062 46.2421 21.1471C46.0594 21.7099 51.6885 26.8644 48.5685 35.1385C47.2937 38.5149 44.0821 42.7908 36.0223 43.9929V43.9948C37.0554 45.5694 38.2967 46.407 38.2901 49.6554V62.4344C51.8046 59.1689 61.981 45.9943 61.981 31.4911C61.9815 14.4954 48.034 0.547852 31.0382 0.547852Z" fill="#828282"/>
</svg>
