<svg width="113" height="45" viewBox="0 0 113 45" fill="none" xmlns="http://www.w3.org/2000/svg">
<path d="M27.251 0.0634766H17.3199C16.8356 0.0634766 16.443 0.453452 16.443 0.934444V26.2774C16.443 26.2774 16.2246 29.1856 13.5892 29.1856C10.9539 29.1856 10.7655 26.2774 10.7655 26.2774V20.4635C10.7655 19.9825 10.3729 19.5925 9.88863 19.5925H0.876923C0.392642 19.5925 0 19.9825 0 20.4635V27.8086C0 27.8086 0.564525 37.9493 13.8609 37.9493C27.6663 37.9493 28.0839 25.4622 28.0839 25.4622L28.128 0.935968C28.1288 0.454323 27.736 0.0634766 27.251 0.0634766Z" fill="#828282"/>
<path fill-rule="evenodd" clip-rule="evenodd" d="M56.9901 24.3373C56.9965 24.7047 56.7023 25.0076 56.3324 25.0076L40.1282 25.0073C39.7294 25.0073 39.4162 25.3579 39.4762 25.7494C39.9112 28.5842 41.4585 31.2075 44.1184 31.2075C45.4617 31.2075 46.9187 30.6253 47.7507 29.569C47.8745 29.4118 48.0641 29.3202 48.2652 29.3202H55.5401C56.0075 29.3202 56.321 29.7892 56.1498 30.221C54.0972 35.3975 49.3431 37.8143 44.1187 37.8143C36.4969 37.8143 30.7153 32.691 30.7153 23.6578C30.7153 15.838 35.7087 8.65035 43.3301 8.65035C52.5882 8.65035 56.8132 14.2435 56.9901 24.3373ZM48.1387 18.8894C47.8331 16.8024 46.2402 15.175 44.1184 15.175C40.1587 15.175 39.6082 18.4733 39.5317 19.3903C39.5212 19.5172 39.6222 19.6243 39.7505 19.6243H47.4856C47.8813 19.6243 48.1957 19.2785 48.1387 18.8894Z" fill="#828282"/>
<path fill-rule="evenodd" clip-rule="evenodd" d="M84.8105 24.3373C84.8169 24.7047 84.5227 25.0076 84.1528 25.0076L67.9486 25.0073C67.5498 25.0073 67.2365 25.3579 67.2966 25.7494C67.7316 28.5842 69.2789 31.2075 71.9388 31.2075C73.2821 31.2075 74.7391 30.6253 75.571 29.569C75.6949 29.4118 75.8845 29.3202 76.0856 29.3202H83.3605C83.8279 29.3202 84.1414 29.7892 83.9702 30.221C81.9176 35.3975 77.1635 37.8143 71.939 37.8143C64.3173 37.8143 58.5357 32.691 58.5357 23.6578C58.5357 15.838 63.5291 8.65035 71.1505 8.65035C80.4086 8.65035 84.6336 14.2435 84.8105 24.3373ZM75.9591 18.8894C75.6535 16.8024 74.0605 15.175 71.9388 15.175C67.9791 15.175 67.4286 18.4733 67.3521 19.3903C67.3416 19.5172 67.4426 19.6243 67.5709 19.6243H75.306C75.7017 19.6243 76.0161 19.2785 75.9591 18.8894Z" fill="#828282"/>
<path fill-rule="evenodd" clip-rule="evenodd" d="M94.5803 12.291C94.5803 12.291 96.2969 8.651 101.918 8.651C103.833 8.651 112.246 9.08605 112.246 22.9416C112.246 36.7974 101.783 36.9633 101.783 36.9633C101.783 36.9633 96.9381 37.2436 94.8513 33.3233V44.2651C94.8513 44.6259 94.5569 44.9183 94.1936 44.9183H86.134C85.7708 44.9183 85.4763 44.6259 85.4763 44.2651V9.97705C85.4763 9.61625 85.7708 9.32382 86.134 9.32382H93.9226C94.2859 9.32382 94.5803 9.61625 94.5803 9.97705V12.291ZM94.4337 22.917C94.4337 26.3192 95.5335 29.0778 98.7247 29.0778C101.916 29.0778 103.016 26.3192 103.016 22.917C103.016 19.5126 101.744 16.754 98.7247 16.754C95.7052 16.754 94.4337 19.5124 94.4337 22.917Z" fill="#828282"/>
<path d="M22.4832 0.0634766L22.4376 25.462C22.4376 25.462 22.0746 36.2448 10.9427 37.769C11.8402 37.8855 12.8105 37.9493 13.8609 37.9493C27.6663 37.9493 28.0839 25.4622 28.0839 25.4622L28.128 0.935968C28.1288 0.454323 27.736 0.0634766 27.251 0.0634766H22.4832Z" fill="#828282"/>
<path d="M41.295 37.5645C42.2008 37.7293 43.1444 37.8143 44.1187 37.8143C49.3431 37.8143 54.0972 35.3975 56.1498 30.221C56.321 29.7892 56.0075 29.3202 55.5401 29.3202H50.8243C49.3052 34.1076 45.6349 36.7785 41.295 37.5645Z" fill="#828282"/>
<path d="M51.3498 25.0076H56.3324C56.7023 25.0076 56.9965 24.7047 56.9901 24.3373C56.8132 14.2435 52.5882 8.65035 43.3301 8.65035C42.488 8.65035 41.6802 8.74267 40.9054 8.90946C48.1047 10.1432 51.3498 15.7714 51.3498 25.0076Z" fill="#828282"/>
<path d="M79.1702 25.0076H84.1528C84.5227 25.0076 84.8169 24.7047 84.8105 24.3373C84.6336 14.2435 80.4086 8.65035 71.1505 8.65035C70.3084 8.65035 69.5003 8.74267 68.7256 8.90946C75.9253 10.1432 79.1702 15.7714 79.1702 25.0076Z" fill="#828282"/>
<path d="M69.1153 37.5645C70.0212 37.7293 70.9648 37.8143 71.939 37.8143C77.1635 37.8143 81.9176 35.3975 83.9702 30.221C84.1414 29.7892 83.8279 29.3202 83.3605 29.3202H78.6447C77.1256 34.1076 73.4552 36.7785 69.1153 37.5645Z" fill="#828282"/>
<path d="M101.918 8.651C100.806 8.651 99.8498 8.79471 99.0266 9.02312C102.188 9.91195 106.6 12.9068 106.6 22.9416C106.6 32.3749 101.751 35.4618 98.6547 36.4719C100.319 37.0463 101.783 36.9633 101.783 36.9633C101.783 36.9633 112.246 36.7974 112.246 22.9416C112.246 9.08605 103.833 8.651 101.918 8.651Z" fill="#828282"/>
</svg>
