<svg width="121" height="23" viewBox="0 0 121 23" fill="none" xmlns="http://www.w3.org/2000/svg">
<path d="M10.978 14.272H5.214L4.29 17H0.352L5.94 1.556H10.296L15.884 17H11.902L10.978 14.272ZM10.01 11.368L8.096 5.714L6.204 11.368H10.01ZM21.3467 6.77C21.7867 6.09533 22.3367 5.56733 22.9967 5.186C23.6567 4.79 24.39 4.592 25.1967 4.592V8.574H24.1627C23.224 8.574 22.52 8.77933 22.0507 9.19C21.5814 9.586 21.3467 10.29 21.3467 11.302V17H17.5847V4.724H21.3467V6.77ZM30.7569 0.72V17H26.9949V0.72H30.7569ZM45.0551 10.664C45.0551 11.016 45.0331 11.3827 44.9891 11.764H36.4751C36.5338 12.5267 36.7758 13.1133 37.2011 13.524C37.6411 13.92 38.1765 14.118 38.8071 14.118C39.7458 14.118 40.3985 13.722 40.7651 12.93H44.7691C44.5638 13.7367 44.1898 14.4627 43.6471 15.108C43.1191 15.7533 42.4518 16.2593 41.6451 16.626C40.8385 16.9927 39.9365 17.176 38.9391 17.176C37.7365 17.176 36.6658 16.9193 35.7271 16.406C34.7885 15.8927 34.0551 15.1593 33.5271 14.206C32.9991 13.2527 32.7351 12.138 32.7351 10.862C32.7351 9.586 32.9918 8.47133 33.5051 7.518C34.0331 6.56467 34.7665 5.83133 35.7051 5.318C36.6438 4.80467 37.7218 4.548 38.9391 4.548C40.1271 4.548 41.1831 4.79733 42.1071 5.296C43.0311 5.79467 43.7498 6.506 44.2631 7.43C44.7911 8.354 45.0551 9.432 45.0551 10.664ZM41.2051 9.674C41.2051 9.02867 40.9851 8.51533 40.5451 8.134C40.1051 7.75267 39.5551 7.562 38.8951 7.562C38.2645 7.562 37.7291 7.74533 37.2891 8.112C36.8638 8.47867 36.5998 8.99933 36.4971 9.674H41.2051ZM54.5198 4.592C55.9571 4.592 57.1011 5.06133 57.9518 6C58.8171 6.924 59.2498 8.2 59.2498 9.828V17H55.5098V10.334C55.5098 9.51267 55.2971 8.87467 54.8718 8.42C54.4464 7.96533 53.8744 7.738 53.1558 7.738C52.4371 7.738 51.8651 7.96533 51.4398 8.42C51.0144 8.87467 50.8018 9.51267 50.8018 10.334V17H47.0398V4.724H50.8018V6.352C51.1831 5.80933 51.6964 5.384 52.3418 5.076C52.9871 4.75333 53.7131 4.592 54.5198 4.592ZM73.436 10.664C73.436 11.016 73.414 11.3827 73.37 11.764H64.856C64.9147 12.5267 65.1567 13.1133 65.582 13.524C66.022 13.92 66.5573 14.118 67.188 14.118C68.1267 14.118 68.7793 13.722 69.146 12.93H73.15C72.9447 13.7367 72.5707 14.4627 72.028 15.108C71.5 15.7533 70.8327 16.2593 70.026 16.626C69.2193 16.9927 68.3173 17.176 67.32 17.176C66.1173 17.176 65.0467 16.9193 64.108 16.406C63.1693 15.8927 62.436 15.1593 61.908 14.206C61.38 13.2527 61.116 12.138 61.116 10.862C61.116 9.586 61.3727 8.47133 61.886 7.518C62.414 6.56467 63.1473 5.83133 64.086 5.318C65.0247 4.80467 66.1027 4.548 67.32 4.548C68.508 4.548 69.564 4.79733 70.488 5.296C71.412 5.79467 72.1307 6.506 72.644 7.43C73.172 8.354 73.436 9.432 73.436 10.664ZM69.586 9.674C69.586 9.02867 69.366 8.51533 68.926 8.134C68.486 7.75267 67.936 7.562 67.276 7.562C66.6453 7.562 66.11 7.74533 65.67 8.112C65.2447 8.47867 64.9807 8.99933 64.878 9.674H69.586ZM87.9588 17L84.7468 11.17H83.8448V17H80.0828V1.556H86.3968C87.6141 1.556 88.6481 1.76867 89.4988 2.194C90.3641 2.61933 91.0094 3.206 91.4348 3.954C91.8601 4.68733 92.0728 5.50867 92.0728 6.418C92.0728 7.44467 91.7794 8.36133 91.1928 9.168C90.6208 9.97467 89.7701 10.5467 88.6408 10.884L92.2048 17H87.9588ZM83.8448 8.508H86.1768C86.8661 8.508 87.3794 8.33933 87.7168 8.002C88.0688 7.66467 88.2448 7.188 88.2448 6.572C88.2448 5.98533 88.0688 5.52333 87.7168 5.186C87.3794 4.84867 86.8661 4.68 86.1768 4.68H83.8448V8.508ZM106.006 10.664C106.006 11.016 105.984 11.3827 105.94 11.764H97.4263C97.485 12.5267 97.727 13.1133 98.1523 13.524C98.5923 13.92 99.1276 14.118 99.7583 14.118C100.697 14.118 101.35 13.722 101.716 12.93H105.72C105.515 13.7367 105.141 14.4627 104.598 15.108C104.07 15.7533 103.403 16.2593 102.596 16.626C101.79 16.9927 100.888 17.176 99.8903 17.176C98.6876 17.176 97.617 16.9193 96.6783 16.406C95.7396 15.8927 95.0063 15.1593 94.4783 14.206C93.9503 13.2527 93.6863 12.138 93.6863 10.862C93.6863 9.586 93.943 8.47133 94.4563 7.518C94.9843 6.56467 95.7176 5.83133 96.6563 5.318C97.595 4.80467 98.673 4.548 99.8903 4.548C101.078 4.548 102.134 4.79733 103.058 5.296C103.982 5.79467 104.701 6.506 105.214 7.43C105.742 8.354 106.006 9.432 106.006 10.664ZM102.156 9.674C102.156 9.02867 101.936 8.51533 101.496 8.134C101.056 7.75267 100.506 7.562 99.8463 7.562C99.2156 7.562 98.6803 7.74533 98.2403 8.112C97.815 8.47867 97.551 8.99933 97.4483 9.674H102.156ZM120.531 4.724L112.831 22.83H108.783L111.599 16.582L106.605 4.724H110.807L113.645 12.402L116.461 4.724H120.531Z" fill="#151517"/>
</svg>
