<svg width="75" height="47" viewBox="0 0 75 47" fill="none" xmlns="http://www.w3.org/2000/svg">
<path fill-rule="evenodd" clip-rule="evenodd" d="M74.095 9.2734H61.0734C47.2667 -2.9466 27.0416 -2.9466 13.235 9.2734H0.213379C0.213379 9.2734 3.16863 12.9394 4.3692 16.3704C1.78335 19.5664 0.213379 23.6084 0.213379 28.0734C0.213379 38.4604 8.47888 46.8734 18.6838 46.8734C24.7328 46.8734 30.0892 43.8654 33.4601 39.2594L37.3389 46.8734L40.8944 39.3064C44.2653 43.8654 49.5755 46.8734 55.6246 46.8734C65.8295 46.8734 74.095 38.4604 74.095 28.0734C74.095 23.6084 72.525 19.5664 69.9391 16.3704C71.1397 12.9394 74.095 9.2734 74.095 9.2734ZM18.6838 42.1734C11.0647 42.1734 4.83099 35.8284 4.83099 28.0734C4.83099 20.3184 11.0647 13.9734 18.6838 13.9734C26.3028 13.9734 32.5366 20.3184 32.5366 28.0734C32.5366 35.8284 26.3028 42.1734 18.6838 42.1734ZM41.7718 28.0734C41.7718 35.8284 48.0055 42.1734 55.6246 42.1734C63.2436 42.1734 69.4774 35.8284 69.4774 28.0734C69.4774 20.3184 63.2436 13.9734 55.6246 13.9734C48.0055 13.9734 41.7718 20.3184 41.7718 28.0734Z" fill="#828282"/>
<path fill-rule="evenodd" clip-rule="evenodd" d="M9.44861 28.0734C9.44861 22.8893 13.5906 18.6734 18.6838 18.6734C23.777 18.6734 27.919 22.8893 27.919 28.0734C27.919 33.2575 23.777 37.4734 18.6838 37.4734C13.5906 37.4734 9.44861 33.2575 9.44861 28.0734ZM14.0662 28.0734C14.0662 30.6631 16.1395 32.7734 18.6838 32.7734C21.2281 32.7734 23.3014 30.6631 23.3014 28.0734C23.3014 25.4837 21.2281 23.3734 18.6838 23.3734C16.1395 23.3734 14.0662 25.4837 14.0662 28.0734Z" fill="#828282"/>
<path fill-rule="evenodd" clip-rule="evenodd" d="M46.3894 28.0734C46.3894 22.8893 50.5314 18.6734 55.6246 18.6734C60.7178 18.6734 64.8598 22.8893 64.8598 28.0734C64.8598 33.2575 60.7178 37.4734 55.6246 37.4734C50.5314 37.4734 46.3894 33.2575 46.3894 28.0734ZM51.007 28.0734C51.007 30.6631 53.0757 32.7734 55.6246 32.7734C58.1735 32.7734 60.2422 30.6631 60.2422 28.0734C60.2422 25.4837 58.1735 23.3734 55.6246 23.3734C53.0757 23.3734 51.007 25.4837 51.007 28.0734Z" fill="#828282"/>
<path d="M18.6838 30.4234C19.9589 30.4234 20.9926 29.3713 20.9926 28.0734C20.9926 26.7755 19.9589 25.7234 18.6838 25.7234C17.4087 25.7234 16.375 26.7755 16.375 28.0734C16.375 29.3713 17.4087 30.4234 18.6838 30.4234Z" fill="#828282"/>
<path d="M55.6246 30.4234C56.8997 30.4234 57.9334 29.3713 57.9334 28.0734C57.9334 26.7755 56.8997 25.7234 55.6246 25.7234C54.3495 25.7234 53.3158 26.7755 53.3158 28.0734C53.3158 29.3713 54.3495 30.4234 55.6246 30.4234Z" fill="#828282"/>
</svg>
